<svg xmlns="http://www.w3.org/2000/svg" version="1.1" xmlns:xlink="http://www.w3.org/1999/xlink" xmlns:svgjs="http://svgjs.dev/svgjs" width="1500" height="840" viewBox="0 0 1500 840"><g transform="matrix(1,0,0,1,-0.9090909090909918,-0.9040207330618273)"><svg viewBox="0 0 396 222" data-background-color="#dfdad6" preserveAspectRatio="xMidYMid meet" height="840" width="1500" xmlns="http://www.w3.org/2000/svg" xmlns:xlink="http://www.w3.org/1999/xlink"><g id="tight-bounds" transform="matrix(1,0,0,1,0.2400000000000091,0.23891976516634372)"><svg viewBox="0 0 395.52 221.5221604696673" height="221.5221604696673" width="395.52"><g><svg viewBox="0 0 395.52 221.5221604696673" height="221.5221604696673" width="395.52"><g><svg viewBox="0 0 395.52 221.5221604696673" height="221.5221604696673" width="395.52"><g id="textblocktransform"><svg viewBox="0 0 395.52 221.5221604696673" height="221.5221604696673" width="395.52" id="textblock"><g><svg viewBox="0 0 395.52 221.5221604696673" height="221.5221604696673" width="395.52"><g transform="matrix(1,0,0,1,0,0)"><svg width="395.52" viewBox="3.05 -34.57 62.38000000000001 34.94" height="221.5221604696673" data-palette-color="#2a2d5c"><path d="M14.92 0L4.05 0Q3.05 0 3.05-1.03L3.05-1.03Q3.05-2.32 3.1-3.6 3.15-4.88 3.17-6.15L3.17-6.15Q3.22-8.98 3.26-11.8 3.3-14.62 3.3-17.43L3.3-17.43Q3.3-20.14 3.27-22.85 3.25-25.56 3.2-28.27L3.2-28.27Q3.17-29.49 3.13-30.74 3.08-31.98 3.08-33.2L3.08-33.2Q3.08-34.23 4.08-34.23L4.08-34.23 13.23-34.23Q17.33-34.23 20.96-33.06 24.58-31.88 27.27-29.33 29.96-26.78 31.23-22.63L31.23-22.63Q32.13-19.65 32.13-16.58L32.13-16.58Q32.13-11.57 29.87-7.85 27.61-4.13 23.72-2.06 19.82 0 14.92 0L14.92 0ZM9.33-5.88L9.33-5.88 13.84-5.88Q19.29-5.88 22.55-8.75 25.81-11.62 25.81-17.21L25.81-17.21Q25.81-20.39 24.46-22.91 23.12-25.44 20.7-26.9 18.29-28.37 15.04-28.37L15.04-28.37 9.35-28.37Q9.38-25.78 9.39-23.17 9.4-20.56 9.4-17.94L9.4-17.94Q9.4-11.94 9.33-5.88ZM65.43-3.71L65.43-3.71Q65.43-3.25 65.04-2.93L65.04-2.93Q63.82-1.95 61.78-1.21 59.74-0.46 57.59-0.05 55.44 0.37 53.88 0.37L53.88 0.37Q48.83 0.37 44.75-1.57 40.67-3.52 38.28-7.23 35.89-10.94 35.89-16.24L35.89-16.24Q35.89-21.73 38.02-25.85 40.16-29.98 44.16-32.28 48.17-34.57 53.73-34.57L53.73-34.57Q55.95-34.57 58.65-34.11 61.35-33.64 63.33-32.62L63.33-32.62Q63.91-32.32 63.91-31.84L63.91-31.84Q63.91-31.69 63.64-30.76 63.38-29.83 63.08-28.89 62.79-27.95 62.69-27.71L62.69-27.71Q62.6-27.39 62.42-27.15 62.25-26.9 61.86-26.9L61.86-26.9Q61.69-26.9 61.55-26.95 61.4-27 61.25-27.05L61.25-27.05Q59.52-27.76 57.76-28.11 56-28.47 54.12-28.47L54.12-28.47Q48.7-28.47 45.47-25.35 42.23-22.24 42.23-16.77L42.23-16.77Q42.23-11.65 45.27-8.69 48.31-5.74 53.39-5.74L53.39-5.74Q54.98-5.74 56.71-6.05 58.44-6.37 59.89-7.06L59.89-7.06Q60.06-7.13 60.06-7.32L60.06-7.32Q60.06-8.69 60.03-10.08 60.01-11.47 60.01-12.84L60.01-12.84Q60.01-13.13 59.69-13.13L59.69-13.13 53.98-13.13Q52.98-13.13 52.98-14.14L52.98-14.14 52.98-16.53Q52.98-17.53 53.98-17.53L53.98-17.53 64.26-17.53Q65.26-17.53 65.26-16.53L65.26-16.53Q65.26-13.33 65.34-10.12 65.43-6.91 65.43-3.71Z" opacity="1" transform="matrix(1,0,0,1,0,0)" fill="#2a2d5c" class="wordmark-text-0" data-fill-palette-color="primary" id="text-0"></path></svg></g></svg></g></svg></g></svg></g><g></g></svg></g><defs></defs></svg><rect width="395.52" height="221.5221604696673" fill="none" stroke="none" visibility="hidden"></rect></g></svg></g></svg>