<svg xmlns="http://www.w3.org/2000/svg" version="1.1" xmlns:xlink="http://www.w3.org/1999/xlink" xmlns:svgjs="http://svgjs.dev/svgjs" width="1500" height="1500" viewBox="0 0 1500 1500"><rect width="1500" height="1500" fill="#ffffff"></rect><g transform="matrix(0.6666666666666666,0,0,0.6666666666666666,249.39393939393938,582.1905266749604)"><svg viewBox="0 0 396 133" data-background-color="#ffffff" preserveAspectRatio="xMidYMid meet" height="503" width="1500" xmlns="http://www.w3.org/2000/svg" xmlns:xlink="http://www.w3.org/1999/xlink"><g id="tight-bounds" transform="matrix(1,0,0,1,0.2400000000000091,0.056640016591273934)"><svg viewBox="0 0 395.52 132.88671996681742" height="132.88671996681742" width="395.52"><g><svg viewBox="0 0 670.2910034106576 225.20421942381958" height="132.88671996681742" width="395.52"><g transform="matrix(1,0,0,1,274.7710034106576,60.11182693556019)"><svg viewBox="0 0 395.52 104.9805655526992" height="104.9805655526992" width="395.52"><g id="textblocktransform"><svg viewBox="0 0 395.52 104.9805655526992" height="104.9805655526992" width="395.52" id="textblock"><g><svg viewBox="0 0 395.52 104.9805655526992" height="104.9805655526992" width="395.52"><g transform="matrix(1,0,0,1,0,0)"><svg width="395.52" viewBox="1.5 -31 155.59 41.3" height="104.9805655526992" data-palette-color="#89939e"><path d="M3.05 0.05L3.05 0.05 2.25 1.05 1.5 0.8 3.55-5.35 4.35-5.2 4.15-3.15Q6.7-2.05 8.8-2.05 10.9-2.05 12-2.8 13.1-3.55 13.1-4.8 13.1-6.05 11.95-6.88 10.8-7.7 9.15-8.33 7.5-8.95 5.88-9.7 4.25-10.45 3.1-11.8 1.95-13.15 1.95-15.33 1.95-17.5 4.35-19.1 6.75-20.7 10.45-20.7L10.45-20.7Q12.6-20.7 14.8-20.15L14.8-20.15 15.25-21.3 16.05-21.3 15.75-14.6 14.9-14.65 14.65-16.5Q11.2-18 9.1-18L9.1-18Q5.65-18 5.65-15.7L5.65-15.7Q5.65-14.7 6.83-13.95 8-13.2 9.65-12.6 11.3-12 12.95-11.25 14.6-10.5 15.78-9.1 16.95-7.7 16.95-5.75L16.95-5.75Q16.95-2.8 14.5-1.03 12.05 0.75 8 0.75L8 0.75Q5.75 0.75 3.05 0.05ZM29.85 0L21.45 0 21.4-0.95 22.9-1.3 23.35-9 23.35-21.3 22.9-28.85 21.2-29.2 21.25-30.15 27.7-30.7 27.2-21.3 27.2-17.85Q30.7-20.7 33.97-20.7 37.25-20.7 38.87-18.8 40.5-16.9 40.5-13.5L40.5-13.5 40.5-8.9 40.9-1.3 42.4-0.95 42.35 0 34.1 0 34.05-1.05 36.2-1.3 36.65-8.9 36.65-13.3Q36.65-15.2 35.57-16.23 34.5-17.25 32.2-17.25 29.9-17.25 27.2-15.25L27.2-15.25 27.2-9 27.65-1.3 29.9-1.05 29.85 0ZM56.75-2.05L56.75-2.05Q62.05-2.05 62.05-9.4L62.05-9.4Q62.05-17.9 55.9-17.9L55.9-17.9Q53.15-17.9 51.92-16.18 50.7-14.45 50.7-10.3L50.7-10.3Q50.7-2.05 56.75-2.05ZM56.25 0.75Q51.6 0.75 49-1.98 46.4-4.7 46.4-9.68 46.4-14.65 49.15-17.68 51.9-20.7 56.57-20.7 61.25-20.7 63.82-18.03 66.4-15.35 66.4-10.33 66.4-5.3 63.65-2.27 60.9 0.75 56.25 0.75ZM72.34 9L72.79 1.45 72.79-11.05 72.34-18.6 70.64-18.95 70.69-19.9 76.89-20.35 76.89-18.3Q79.59-20.7 82.84-20.7 86.09-20.7 88.34-17.82 90.59-14.95 90.59-10.13 90.59-5.3 87.79-2.27 84.99 0.75 80.09 0.75L80.09 0.75Q78.49 0.75 76.64 0.35L76.64 0.35 76.64 1.45 77.04 9 79.29 9.25 79.24 10.3 70.89 10.3 70.84 9.35 72.34 9ZM84.92-3.83Q86.29-5.65 86.29-9.6 86.29-13.55 84.92-15.73 83.54-17.9 81.27-17.9 78.99-17.9 76.89-15.7L76.89-15.7 76.64-11.1 76.64-2.55Q78.99-2 80.59-2L80.59-2Q83.54-2 84.92-3.83ZM108.97-27.7Q104.14-27.7 102.02-24.63 99.89-21.55 99.89-15.28 99.89-9 102.62-5.78 105.34-2.55 110.14-2.55 114.94-2.55 117.07-5.58 119.19-8.6 119.19-14.98 119.19-21.35 116.49-24.53 113.79-27.7 108.97-27.7ZM109.17 0.75Q102.49 0.75 98.79-3.38 95.09-7.5 95.09-14.85 95.09-22.2 99.14-26.6 103.19-31 109.89-31 116.59-31 120.29-26.9 123.99-22.8 123.99-15.45 123.99-8.1 119.92-3.68 115.84 0.75 109.17 0.75ZM129.49-0.95L130.99-1.3 131.59-9.9 131.59-20.4 130.94-28.95 129.49-29.3 129.54-30.25 137.84-30.25 137.89-29.2 135.69-28.95 135.64-28.95 151.39-7.3 151.39-20.4 150.74-28.95 148.74-29.2 148.79-30.25 157.04-30.25 157.09-29.3 155.59-28.95 154.99-20.35 154.99-11.2 155.59-1.3 157.09-0.95 157.04 0 148.94 0 148.89-1.05 151.14-1.3 135.19-23.15 135.19-9.85 135.79-1.3 137.79-1.05 137.74 0 129.54 0 129.49-0.95Z" opacity="1" transform="matrix(1,0,0,1,0,0)" fill="#000000" class="wordmark-text-0" data-fill-palette-color="primary" id="text-0"></path></svg></g></svg></g></svg></g></svg></g><g><svg viewBox="0 0 225.20421942381958 225.20421942381958" height="225.20421942381958" width="225.20421942381958"><g><svg></svg></g><g id="icon-0"><svg viewBox="0 0 225.20421942381958 225.20421942381958" height="225.20421942381958" width="225.20421942381958"><g><path d="M0 112.602c0-62.188 50.414-112.602 112.602-112.602 62.188 0 112.602 50.414 112.602 112.602 0 62.188-50.414 112.602-112.602 112.602-62.188 0-112.602-50.414-112.602-112.602zM112.602 215.737c56.96 0 103.135-46.175 103.135-103.135 0-56.96-46.175-103.135-103.135-103.135-56.96 0-103.135 46.175-103.135 103.135 0 56.96 46.175 103.135 103.135 103.135z" data-fill-palette-color="accent" fill="#000000" stroke="transparent"></path></g><g transform="matrix(1,0,0,1,49.39178538891908,53.6058070104518)"><svg viewBox="0 0 126.42064864598142 117.99260540291598" height="117.99260540291598" width="126.42064864598142"><g><svg xmlns="http://www.w3.org/2000/svg" viewBox="0 0 30 28" x="0" y="0" height="117.99260540291598" width="126.42064864598142" class="icon-dxe-0" data-fill-palette-color="accent" id="dxe-0"><path fill="#000000" fill-rule="evenodd" d="M9 18V21H13V23H7V16H13V18zM17 26H21V18H17zM26 26H23V16H15V26H4V15H2V28H28V15H26zM28 9C28 10.379 26.879 11.5 25.5 11.5A2.5 2.5 0 0 1 23 9H21C21 10.379 19.879 11.5 18.5 11.5A2.5 2.5 0 0 1 16 9H14C14 10.379 12.878 11.5 11.5 11.5A2.503 2.503 0 0 1 9 9H7C7 10.379 5.878 11.5 4.5 11.5A2.503 2.503 0 0 1 2 9V6.277L4.566 2H25.434L27.233 5H7V7H28zM26.566 0H3.434L0 5.723V9C0 11.481 2.019 13.5 4.5 13.5A4.49 4.49 0 0 0 8 11.825 4.49 4.49 0 0 0 15 11.825 4.49 4.49 0 0 0 22 11.825 4.49 4.49 0 0 0 25.5 13.5C27.981 13.5 30 11.481 30 9V5.723z" data-fill-palette-color="accent"></path></svg></g></svg></g></svg></g></svg></g></svg></g><defs></defs></svg><rect width="100.000000pt" height="50.000000pt"  fill="none" stroke="none" visibility="hidden"></rect></g></svg></g></svg>